<?xml version="1.0" encoding="UTF-8"?>
<svg id="Calque_1" data-name="Calque 1" xmlns="http://www.w3.org/2000/svg" viewBox="0 0 1190.55 567.55">
  <defs>
    <style>
      .cls-1 {
        fill: #1d1d1b;
      }
    </style>
  </defs>
  <g>
    <path class="cls-1" d="M1087.74,189.53c-1.37.91-24.01,13.85-34.08,19.17-1.79.95-4.14,1.14-6.25,1.14-18.62.04-85.87,0-99.07-.11-8.04-.06-14.23,1.99-20.06,7.94-10.51,10.73-21.14,21.31-31.84,31.84-7.37,7.31-14.76,14.57-22.13,21.85-2.81,2.77-5.62,5.57-8.43,8.34-5.49,5.47-15.5,5.53-20.92.15-19.76-19.59-39.55-39.11-59.37-58.66-.21-.21-.57-.27-1.75-.76v83.26h-29.43c-.08-1.48-.27-3.08-.27-4.69.04-32.5.09-65.01.17-97.53.02-8.61,4.26-12.84,12.88-12.86,7.2,0,15.16-1.84,21.41.61,6.21,2.43,10.83,9.1,15.98,14.1,5.57,5.4,11.09,10.81,16.64,16.22,9.67,9.46,19.34,18.94,29.01,28.4,1.67,1.63,3.4,3.19,5.43,5.11,1.65-1.61,3.31-3.21,4.96-4.79,8.42-8.17,16.76-16.2,25-24.33,4.9-4.81,9.73-9.69,14.57-14.55,5.81-5.81,11.66-11.59,17.7-17.15,2.56-2.37,7.22-3.42,10.94-3.46,34.36-.27,142.91-.06,158.89.78Z"/>
    <path class="cls-1" d="M383.47,210.57v93.05h-30.1v-114.71c1.95-.1,3.58-.25,5.21-.25,41.42-.03,82.83-.16,124.25,0,11.99.05,23.58,2.42,32.01,11.9,3.24,3.64,6.24,8.21,7.39,12.84,3.56,14.31,4.17,28.65-5.56,41.24-6.16,7.97-14.86,11.63-26.39,13.07,16.3,12.29,31.4,23.66,47.08,35.48-1.49.36-2.33.73-3.17.74-11.74.07-23.47.18-35.21.01-1.96-.03-4.28-.89-5.81-2.13-12.5-10.13-24.81-20.48-37.3-30.63-1.4-1.14-2.4-1.92-5.28-1.95-15.96-.06-24.48-1.6-37.13-12.14-3.27-2.75-6.36-5.21-10.18-7.82,2.99-.06,4.01,0,5.34,0,20.62.02,41.25.06,61.87.09.67,0,1.34,0,2.01-.02,17.67-.49,24.54-9.01,21.28-26.48-1.16-6.22-4.83-10.25-11.04-11.61-3.09-.68-6.28-1.2-9.43-1.21-28.5-.03-57.01.06-85.51.14-1.3,0-2.6.21-4.33.36Z"/>
    <path class="cls-1" d="M102.81,188.59c28.79,0,56.45,0,84.11,0,31.19,0,62.39-.1,93.58.06,16.24.08,29.71,5.65,38.58,20.23,5.78,9.5,7.2,35.9-2.99,48.49-5.82,7.18-13.44,11.06-22.19,12.71-5.89,1.11-11.95,1.65-17.95,1.73-15.1.19-30.21-.08-45.32-.07-1.68,0-3.36.08-5.02.35-6.32,1.02-9.55,3.62-9.65,10.17.09,6.22.09,19.42.09,21.61-9,.25-20.23.2-29.88.2-.09-11.52-.11-21.8-.28-33.2.28-11.6-4-20.17-10.56-27.13-6.27-6.31-11.75-12.25-17.6-18.4,10.81.77,20.34,1.12,31.78,2.09,3.08.2,5.57,2.51,7.43,4.57,1.44,1.59,3.1,2.98,4.55,4.56,3.62,3.97,6.71,6.49,11.44,10.43,1.85,1.55,4.63,2.77,7,2.8,18.11.25,36.23.32,54.34.12,7-.08,14.21-1.11,17.34-8.66,3.34-8.05,3.75-16.46-1.11-24.13-4.07-6.42-11.14-7.21-17.86-7.23-39.58-.11-79.16-.16-118.73.21-9.29.09-17.64-.93-25.56-6.43-6.99-4.85-14.85-8.42-22.31-12.59-.88-.49-1.62-1.23-3.24-2.49Z"/>
    <path class="cls-1" d="M541.61,188.71c13.73,0,25.79-.09,37.86.11,1.52.03,3.29,1.29,4.48,2.45,17.92,17.4,35.77,34.88,53.64,52.33.58.57,1.26,1.03,2.18,1.77,10.36-10.18,20.65-20.23,30.87-30.35,7.98-7.91,15.85-15.92,23.83-23.83,1-1,2.37-2.3,3.58-2.32,12.17-.17,24.35-.1,37.94-.1-8.08,7.73-15.11,14.54-22.23,21.25-17.92,16.91-35.83,33.85-53.89,50.62-3.8,3.53-5.8,7.2-5.58,12.59.4,10.02.12,20.07.12,30.83-9.89,0-19.07.1-28.23-.18-.76-.02-2.03-2.65-2.06-4.08-.16-9.72.19-19.46-.17-29.17-.1-2.66-1.33-5.97-3.22-7.75-24.24-22.93-48.68-45.63-73.07-68.39-1.67-1.56-3.31-3.15-6.06-5.78Z"/>
    <path class="cls-1" d="M988.01,226.88c-7.68,4.29-11.09,6.94-19.38,16.36-.02.02-.04.04-.06.07-6.66,7.52-10.39,17.2-10.39,27.24v1.17c.05,10.82.13,20.82.13,31.86h-.13v.04h-31.02c0-6.52-.04-12.68-.06-19.14,0-2.03-.43-14.56.84-20.79.6-2.96.67-4.23,2.69-9.06,4.4-10.52,9.15-16.33,16.35-22.51.04-.03.07-.06.11-.09,2.11-1.8,4.21-3.91,7.26-4.16,12.3-1.02,22.93-.7,33.67-.97Z"/>
  </g>
  <path class="cls-1" d="M236.68,326.15c229.74-1.81,487.46-1.83,717.2,0-229.74,1.83-487.46,1.81-717.2,0h0Z"/>
  <g>
    <path class="cls-1" d="M243.06,379.23v-26.54h17.48v1.64h-15.51v10.59h14.31v1.57h-14.31v11.11h15.51v1.64h-17.48Z"/>
    <path class="cls-1" d="M298.04,379.23l-9.09-11.93-9.1,11.93h-2.42l10.29-13.53-9.91-13.01h2.42l8.72,11.41,8.72-11.41h2.42l-9.92,13.01,10.29,13.53h-2.42Z"/>
    <path class="cls-1" d="M318.31,379.23v-26.54h17.48v1.64h-15.51v10.59h14.31v1.57h-14.31v11.11h15.51v1.64h-17.48Z"/>
    <path class="cls-1" d="M353.42,365.97c0-8.09,3.99-13.64,12.23-13.64,7.12,0,11.26,4.32,11.26,9.32h-1.75c-.52-4.36-3.69-7.68-9.51-7.68-6.71,0-10.25,4.36-10.25,12s3.54,12,10.25,12c5.74,0,8.98-3.17,9.51-7.9h1.75c0,5.11-3.99,9.54-11.26,9.54-8.24,0-12.23-5.55-12.23-13.64Z"/>
    <path class="cls-1" d="M395.13,369.24v-16.55h1.98v16.44c0,6.41,2.57,8.83,8.42,8.83s8.46-2.42,8.46-8.83v-16.44h1.98v16.55c0,6.86-2.94,10.36-10.44,10.36s-10.4-3.5-10.4-10.36Z"/>
    <path class="cls-1" d="M442.32,379.23v-24.9h-8.69v-1.64h19.35v1.64h-8.69v24.9h-1.98Z"/>
    <path class="cls-1" d="M471.01,379.23v-26.54h1.98v26.54h-1.98Z"/>
    <path class="cls-1" d="M501.54,379.23l-10.7-26.54h2.16l9.73,24.38,9.73-24.38h2.16l-10.7,26.54h-2.39Z"/>
    <path class="cls-1" d="M532.48,379.23v-26.54h17.48v1.64h-15.51v10.59h14.31v1.57h-14.31v11.11h15.51v1.64h-17.48Z"/>
    <path class="cls-1" d="M599.94,379.23v-24.9h-8.69v-1.64h19.35v1.64h-8.69v24.9h-1.98Z"/>
    <path class="cls-1" d="M643.25,366.63c2.72.71,4.29,2.61,4.29,5.55v4.36c0,1.12.15,2.05.37,2.68h-1.75c-.34-.71-.6-1.53-.6-2.68v-4.32c0-3.65-2.42-4.88-5.78-4.88h-9.17v11.89h-1.98v-26.54h11.41c5.11,0,7.87,2.76,7.87,7.27,0,3.43-1.6,5.78-4.66,6.67ZM639.93,354.26h-9.32v11.52h9.32c4.32,0,6-2.39,6-5.74s-1.68-5.78-6-5.78Z"/>
    <path class="cls-1" d="M686.89,379.23l-3.02-7.49h-13.57l-3.02,7.49h-2.09l10.7-26.54h2.39l10.7,26.54h-2.09ZM677.09,354.74l-6.22,15.4h12.41l-6.19-15.4Z"/>
    <path class="cls-1" d="M725.32,379.23l-16.59-23.97v23.97h-1.9v-26.54h2.35l16.55,23.97v-23.97h1.94v26.54h-2.35Z"/>
    <path class="cls-1" d="M746.26,371.07h1.75c.52,4.62,2.31,6.97,8.13,6.97s7.83-2.42,7.83-6.49c0-2.2-1.16-3.95-5.78-4.62l-4.44-.67c-5.22-.78-6.82-2.83-6.82-6.15,0-4.7,2.91-7.79,9.17-7.79s9.17,2.98,9.17,8.16h-1.75c-.45-4.4-2.42-6.6-7.46-6.6s-7.16,2.31-7.16,6.15c0,2.42,1.12,3.88,5.26,4.47l4.44.67c4.88.71,7.34,2.65,7.34,6.34,0,5.18-3.09,8.09-9.84,8.09s-9.84-2.91-9.84-8.54Z"/>
    <path class="cls-1" d="M795.2,368.46h-8.69v10.77h-1.98v-26.54h10.66c5.14,0,8.61,2.61,8.61,7.9s-3.47,7.87-8.61,7.87ZM795.05,354.26h-8.54v12.64h8.54c4.4,0,6.78-2.2,6.78-6.3s-2.39-6.34-6.78-6.34Z"/>
    <path class="cls-1" d="M821.48,365.97c0-8.09,3.99-13.64,12.23-13.64s12.26,5.55,12.26,13.64-3.99,13.64-12.26,13.64-12.23-5.55-12.23-13.64ZM843.99,365.97c0-7.64-3.54-12-10.29-12s-10.25,4.36-10.25,12,3.54,12,10.25,12,10.29-4.36,10.29-12Z"/>
    <path class="cls-1" d="M879.18,366.63c2.72.71,4.29,2.61,4.29,5.55v4.36c0,1.12.15,2.05.37,2.68h-1.75c-.34-.71-.6-1.53-.6-2.68v-4.32c0-3.65-2.42-4.88-5.78-4.88h-9.17v11.89h-1.98v-26.54h11.41c5.11,0,7.87,2.76,7.87,7.27,0,3.43-1.6,5.78-4.66,6.67ZM875.86,354.26h-9.32v11.52h9.32c4.32,0,6-2.39,6-5.74s-1.68-5.78-6-5.78Z"/>
    <path class="cls-1" d="M908.51,379.23v-24.9h-8.69v-1.64h19.35v1.64h-8.69v24.9h-1.98Z"/>
  </g>
</svg>